<svg xmlns="http://www.w3.org/2000/svg" xmlns:xlink="http://www.w3.org/1999/xlink" version="1.1" width="256" height="256" viewBox="0 0 256 256" xml:space="preserve">

<defs>
</defs>
<g style="stroke: none; stroke-width: 0; stroke-dasharray: none; stroke-linecap: butt; stroke-linejoin: miter; stroke-miterlimit: 10; fill: none; fill-rule: nonzero; opacity: 1;" transform="translate(45.02412451361867 35.063035019455214) scale(1.83 1.83)" >
	<path d="M 47 47 H 0 V 7.977 C 0 3.578 3.578 0 7.977 0 H 47 V 47 z M 4 43 h 39 V 4 H 7.977 C 5.784 4 4 5.784 4 7.977 V 43 z" style="stroke: none; stroke-width: 1; stroke-dasharray: none; stroke-linecap: butt; stroke-linejoin: miter; stroke-miterlimit: 10; fill: rgb(0,255,28); fill-rule: nonzero; opacity: 1;" transform=" matrix(1 0 0 1 0 0) " stroke-linecap="round" />
	<path d="M 23.5 34.295 c -1.104 0 -2 -0.896 -2 -2 V 14.705 c 0 -1.104 0.896 -2 2 -2 s 2 0.896 2 2 v 17.591 C 25.5 33.4 24.604 34.295 23.5 34.295 z" style="stroke: none; stroke-width: 1; stroke-dasharray: none; stroke-linecap: butt; stroke-linejoin: miter; stroke-miterlimit: 10; fill: rgb(0,255,28); fill-rule: nonzero; opacity: 1;" transform=" matrix(1 0 0 1 0 0) " stroke-linecap="round" />
	<path d="M 32.295 25.5 H 14.705 c -1.104 0 -2 -0.896 -2 -2 s 0.896 -2 2 -2 h 17.591 c 1.104 0 2 0.896 2 2 S 33.4 25.5 32.295 25.5 z" style="stroke: none; stroke-width: 1; stroke-dasharray: none; stroke-linecap: butt; stroke-linejoin: miter; stroke-miterlimit: 10; fill: rgb(0,255,28); fill-rule: nonzero; opacity: 1;" transform=" matrix(1 0 0 1 0 0) " stroke-linecap="round" />
	<path d="M 90 47 H 43 V 0 h 39.023 C 86.422 0 90 3.578 90 7.977 V 47 z M 47 43 h 39 V 7.977 C 86 5.784 84.216 4 82.023 4 H 47 V 43 z" style="stroke: none; stroke-width: 1; stroke-dasharray: none; stroke-linecap: butt; stroke-linejoin: miter; stroke-miterlimit: 10; fill: rgb(0,255,28); fill-rule: nonzero; opacity: 1;" transform=" matrix(1 0 0 1 0 0) " stroke-linecap="round" />
	<path d="M 75.296 25.5 H 57.704 c -1.104 0 -2 -0.896 -2 -2 s 0.896 -2 2 -2 h 17.592 c 1.104 0 2 0.896 2 2 S 76.4 25.5 75.296 25.5 z" style="stroke: none; stroke-width: 1; stroke-dasharray: none; stroke-linecap: butt; stroke-linejoin: miter; stroke-miterlimit: 10; fill: rgb(0,255,28); fill-rule: nonzero; opacity: 1;" transform=" matrix(1 0 0 1 0 0) " stroke-linecap="round" />
	<path d="M 47 90 H 7.977 C 3.578 90 0 86.422 0 82.023 V 43 h 47 V 90 z M 4 47 v 35.023 C 4 84.216 5.784 86 7.977 86 H 43 V 47 H 4 z" style="stroke: none; stroke-width: 1; stroke-dasharray: none; stroke-linecap: butt; stroke-linejoin: miter; stroke-miterlimit: 10; fill: rgb(0,255,28); fill-rule: nonzero; opacity: 1;" transform=" matrix(1 0 0 1 0 0) " stroke-linecap="round" />
	<path d="M 17.281 74.72 c -0.512 0 -1.023 -0.195 -1.414 -0.586 c -0.781 -0.781 -0.781 -2.047 0 -2.828 l 12.438 -12.439 c 0.78 -0.781 2.047 -0.781 2.828 0 s 0.781 2.047 0 2.828 L 18.695 74.134 C 18.305 74.524 17.792 74.72 17.281 74.72 z" style="stroke: none; stroke-width: 1; stroke-dasharray: none; stroke-linecap: butt; stroke-linejoin: miter; stroke-miterlimit: 10; fill: rgb(0,255,28); fill-rule: nonzero; opacity: 1;" transform=" matrix(1 0 0 1 0 0) " stroke-linecap="round" />
	<path d="M 29.719 74.72 c -0.512 0 -1.024 -0.195 -1.414 -0.586 L 15.867 61.694 c -0.781 -0.781 -0.781 -2.047 0 -2.828 s 2.048 -0.781 2.828 0 l 12.438 12.439 c 0.781 0.781 0.781 2.047 0 2.828 C 30.743 74.524 30.231 74.72 29.719 74.72 z" style="stroke: none; stroke-width: 1; stroke-dasharray: none; stroke-linecap: butt; stroke-linejoin: miter; stroke-miterlimit: 10; fill: rgb(0,255,28); fill-rule: nonzero; opacity: 1;" transform=" matrix(1 0 0 1 0 0) " stroke-linecap="round" />
	<path d="M 82.023 90 H 43 V 43 h 47 v 39.023 C 90 86.422 86.422 90 82.023 90 z M 47 86 h 35.023 C 84.216 86 86 84.216 86 82.023 V 47 H 47 V 86 z" style="stroke: none; stroke-width: 1; stroke-dasharray: none; stroke-linecap: butt; stroke-linejoin: miter; stroke-miterlimit: 10; fill: rgb(0,255,28); fill-rule: nonzero; opacity: 1;" transform=" matrix(1 0 0 1 0 0) " stroke-linecap="round" />
	<path d="M 75.296 73.409 H 57.704 c -1.104 0 -2 -0.896 -2 -2 s 0.896 -2 2 -2 h 17.592 c 1.104 0 2 0.896 2 2 S 76.4 73.409 75.296 73.409 z" style="stroke: none; stroke-width: 1; stroke-dasharray: none; stroke-linecap: butt; stroke-linejoin: miter; stroke-miterlimit: 10; fill: rgb(0,255,28); fill-rule: nonzero; opacity: 1;" transform=" matrix(1 0 0 1 0 0) " stroke-linecap="round" />
	<path d="M 75.296 63.591 H 57.704 c -1.104 0 -2 -0.896 -2 -2 s 0.896 -2 2 -2 h 17.592 c 1.104 0 2 0.896 2 2 S 76.4 63.591 75.296 63.591 z" style="stroke: none; stroke-width: 1; stroke-dasharray: none; stroke-linecap: butt; stroke-linejoin: miter; stroke-miterlimit: 10; fill: rgb(0,255,28); fill-rule: nonzero; opacity: 1;" transform=" matrix(1 0 0 1 0 0) " stroke-linecap="round" />
</g>
</svg>